<mxfile host="app.diagrams.net" agent="Mozilla/5.0 (Macintosh; Intel Mac OS X 10_15_7) AppleWebKit/537.36 (KHTML, like Gecko) Chrome/127.0.0.0 Safari/537.36" version="24.7.6">
  <diagram name="Page-1" id="qsAGAmq3sJfyX383xEO8">
    <mxGraphModel dx="1026" dy="684" grid="1" gridSize="10" guides="1" tooltips="1" connect="1" arrows="1" fold="1" page="1" pageScale="1" pageWidth="850" pageHeight="1100" math="0" shadow="0">
      <root>
        <mxCell id="0" />
        <mxCell id="1" parent="0" />
        <mxCell id="v-b9Ua1HN6AyLvcszPeQ-9" style="edgeStyle=orthogonalEdgeStyle;rounded=0;orthogonalLoop=1;jettySize=auto;html=1;exitX=0.5;exitY=1;exitDx=0;exitDy=0;" parent="1" source="KACyOtmAOyMymnS1a30O-1" target="v-b9Ua1HN6AyLvcszPeQ-3" edge="1">
          <mxGeometry relative="1" as="geometry" />
        </mxCell>
        <mxCell id="v-b9Ua1HN6AyLvcszPeQ-10" style="edgeStyle=orthogonalEdgeStyle;rounded=0;orthogonalLoop=1;jettySize=auto;html=1;exitX=0.5;exitY=1;exitDx=0;exitDy=0;entryX=0.5;entryY=0;entryDx=0;entryDy=0;" parent="1" source="KACyOtmAOyMymnS1a30O-1" target="v-b9Ua1HN6AyLvcszPeQ-2" edge="1">
          <mxGeometry relative="1" as="geometry" />
        </mxCell>
        <mxCell id="v-b9Ua1HN6AyLvcszPeQ-11" style="edgeStyle=orthogonalEdgeStyle;rounded=0;orthogonalLoop=1;jettySize=auto;html=1;exitX=0.5;exitY=1;exitDx=0;exitDy=0;entryX=0.5;entryY=0;entryDx=0;entryDy=0;" parent="1" source="KACyOtmAOyMymnS1a30O-1" target="v-b9Ua1HN6AyLvcszPeQ-1" edge="1">
          <mxGeometry relative="1" as="geometry" />
        </mxCell>
        <mxCell id="v-b9Ua1HN6AyLvcszPeQ-12" style="edgeStyle=orthogonalEdgeStyle;rounded=0;orthogonalLoop=1;jettySize=auto;html=1;exitX=0.5;exitY=1;exitDx=0;exitDy=0;entryX=0.5;entryY=0;entryDx=0;entryDy=0;" parent="1" source="KACyOtmAOyMymnS1a30O-1" target="v-b9Ua1HN6AyLvcszPeQ-5" edge="1">
          <mxGeometry relative="1" as="geometry" />
        </mxCell>
        <mxCell id="v-b9Ua1HN6AyLvcszPeQ-13" style="edgeStyle=orthogonalEdgeStyle;rounded=0;orthogonalLoop=1;jettySize=auto;html=1;exitX=0.5;exitY=1;exitDx=0;exitDy=0;entryX=0.5;entryY=0;entryDx=0;entryDy=0;" parent="1" source="KACyOtmAOyMymnS1a30O-1" target="v-b9Ua1HN6AyLvcszPeQ-6" edge="1">
          <mxGeometry relative="1" as="geometry" />
        </mxCell>
        <mxCell id="v-b9Ua1HN6AyLvcszPeQ-14" style="edgeStyle=orthogonalEdgeStyle;rounded=0;orthogonalLoop=1;jettySize=auto;html=1;exitX=0.5;exitY=1;exitDx=0;exitDy=0;" parent="1" source="KACyOtmAOyMymnS1a30O-1" target="v-b9Ua1HN6AyLvcszPeQ-7" edge="1">
          <mxGeometry relative="1" as="geometry" />
        </mxCell>
        <mxCell id="KACyOtmAOyMymnS1a30O-1" value="&lt;font style=&quot;font-size: 20px;&quot;&gt;&lt;b&gt;Couture Closet&lt;/b&gt;&lt;/font&gt;" style="rounded=1;whiteSpace=wrap;html=1;fillColor=#dae8fc;strokeColor=#6c8ebf;gradientColor=#7ea6e0;" parent="1" vertex="1">
          <mxGeometry x="440" y="160" width="220" height="70" as="geometry" />
        </mxCell>
        <mxCell id="dDtzquKG6E8AnVl8TWLa-11" style="edgeStyle=orthogonalEdgeStyle;rounded=0;orthogonalLoop=1;jettySize=auto;html=1;exitX=0.5;exitY=1;exitDx=0;exitDy=0;entryX=0;entryY=0.5;entryDx=0;entryDy=0;" edge="1" parent="1" source="v-b9Ua1HN6AyLvcszPeQ-1" target="dDtzquKG6E8AnVl8TWLa-8">
          <mxGeometry relative="1" as="geometry" />
        </mxCell>
        <mxCell id="dDtzquKG6E8AnVl8TWLa-12" style="edgeStyle=orthogonalEdgeStyle;rounded=0;orthogonalLoop=1;jettySize=auto;html=1;exitX=0.5;exitY=1;exitDx=0;exitDy=0;entryX=0;entryY=0.5;entryDx=0;entryDy=0;" edge="1" parent="1" source="v-b9Ua1HN6AyLvcszPeQ-1" target="dDtzquKG6E8AnVl8TWLa-9">
          <mxGeometry relative="1" as="geometry" />
        </mxCell>
        <mxCell id="dDtzquKG6E8AnVl8TWLa-13" style="edgeStyle=orthogonalEdgeStyle;rounded=0;orthogonalLoop=1;jettySize=auto;html=1;exitX=0.5;exitY=1;exitDx=0;exitDy=0;entryX=0;entryY=0.5;entryDx=0;entryDy=0;" edge="1" parent="1" source="v-b9Ua1HN6AyLvcszPeQ-1" target="dDtzquKG6E8AnVl8TWLa-10">
          <mxGeometry relative="1" as="geometry" />
        </mxCell>
        <mxCell id="dDtzquKG6E8AnVl8TWLa-14" value="Statistics" style="edgeLabel;html=1;align=center;verticalAlign=middle;resizable=0;points=[];rotation=-90;" vertex="1" connectable="0" parent="dDtzquKG6E8AnVl8TWLa-13">
          <mxGeometry x="-0.12" y="-3" relative="1" as="geometry">
            <mxPoint as="offset" />
          </mxGeometry>
        </mxCell>
        <mxCell id="v-b9Ua1HN6AyLvcszPeQ-1" value="&lt;font style=&quot;font-size: 14px;&quot;&gt;Dashboard&lt;/font&gt;" style="rounded=1;whiteSpace=wrap;html=1;fillColor=#fff2cc;strokeColor=#d6b656;fontStyle=1;gradientColor=#ffd966;" parent="1" vertex="1">
          <mxGeometry x="90" y="320" width="120" height="60" as="geometry" />
        </mxCell>
        <mxCell id="dDtzquKG6E8AnVl8TWLa-4" style="edgeStyle=orthogonalEdgeStyle;rounded=0;orthogonalLoop=1;jettySize=auto;html=1;exitX=0.5;exitY=1;exitDx=0;exitDy=0;entryX=0;entryY=0.5;entryDx=0;entryDy=0;" edge="1" parent="1" source="v-b9Ua1HN6AyLvcszPeQ-2" target="dDtzquKG6E8AnVl8TWLa-3">
          <mxGeometry relative="1" as="geometry" />
        </mxCell>
        <mxCell id="dDtzquKG6E8AnVl8TWLa-5" style="edgeStyle=orthogonalEdgeStyle;rounded=0;orthogonalLoop=1;jettySize=auto;html=1;exitX=0.5;exitY=1;exitDx=0;exitDy=0;entryX=0;entryY=0.5;entryDx=0;entryDy=0;" edge="1" parent="1" source="v-b9Ua1HN6AyLvcszPeQ-2" target="v-b9Ua1HN6AyLvcszPeQ-15">
          <mxGeometry relative="1" as="geometry" />
        </mxCell>
        <mxCell id="dDtzquKG6E8AnVl8TWLa-6" style="edgeStyle=orthogonalEdgeStyle;rounded=0;orthogonalLoop=1;jettySize=auto;html=1;exitX=0.5;exitY=1;exitDx=0;exitDy=0;entryX=0;entryY=0.5;entryDx=0;entryDy=0;" edge="1" parent="1" source="v-b9Ua1HN6AyLvcszPeQ-2" target="dDtzquKG6E8AnVl8TWLa-1">
          <mxGeometry relative="1" as="geometry" />
        </mxCell>
        <mxCell id="dDtzquKG6E8AnVl8TWLa-7" style="edgeStyle=orthogonalEdgeStyle;rounded=0;orthogonalLoop=1;jettySize=auto;html=1;exitX=0.5;exitY=1;exitDx=0;exitDy=0;entryX=0;entryY=0.5;entryDx=0;entryDy=0;" edge="1" parent="1" source="v-b9Ua1HN6AyLvcszPeQ-2" target="dDtzquKG6E8AnVl8TWLa-2">
          <mxGeometry relative="1" as="geometry" />
        </mxCell>
        <mxCell id="v-b9Ua1HN6AyLvcszPeQ-2" value="Product&amp;nbsp;&lt;div style=&quot;font-size: 14px;&quot;&gt;Management&lt;/div&gt;" style="rounded=1;whiteSpace=wrap;html=1;fillColor=#fff2cc;strokeColor=#d6b656;fontStyle=1;gradientColor=#ffd966;fontSize=14;" parent="1" vertex="1">
          <mxGeometry x="245" y="320" width="120" height="60" as="geometry" />
        </mxCell>
        <mxCell id="dDtzquKG6E8AnVl8TWLa-31" style="edgeStyle=orthogonalEdgeStyle;rounded=0;orthogonalLoop=1;jettySize=auto;html=1;exitX=0.5;exitY=1;exitDx=0;exitDy=0;entryX=0;entryY=0.5;entryDx=0;entryDy=0;" edge="1" parent="1" source="v-b9Ua1HN6AyLvcszPeQ-3" target="dDtzquKG6E8AnVl8TWLa-30">
          <mxGeometry relative="1" as="geometry" />
        </mxCell>
        <mxCell id="dDtzquKG6E8AnVl8TWLa-32" style="edgeStyle=orthogonalEdgeStyle;rounded=0;orthogonalLoop=1;jettySize=auto;html=1;exitX=0.5;exitY=1;exitDx=0;exitDy=0;entryX=0;entryY=0.5;entryDx=0;entryDy=0;" edge="1" parent="1" source="v-b9Ua1HN6AyLvcszPeQ-3" target="dDtzquKG6E8AnVl8TWLa-27">
          <mxGeometry relative="1" as="geometry" />
        </mxCell>
        <mxCell id="dDtzquKG6E8AnVl8TWLa-33" style="edgeStyle=orthogonalEdgeStyle;rounded=0;orthogonalLoop=1;jettySize=auto;html=1;exitX=0.5;exitY=1;exitDx=0;exitDy=0;entryX=0;entryY=0.5;entryDx=0;entryDy=0;" edge="1" parent="1" source="v-b9Ua1HN6AyLvcszPeQ-3" target="dDtzquKG6E8AnVl8TWLa-28">
          <mxGeometry relative="1" as="geometry" />
        </mxCell>
        <mxCell id="dDtzquKG6E8AnVl8TWLa-34" style="edgeStyle=orthogonalEdgeStyle;rounded=0;orthogonalLoop=1;jettySize=auto;html=1;exitX=0.5;exitY=1;exitDx=0;exitDy=0;entryX=0;entryY=0.5;entryDx=0;entryDy=0;" edge="1" parent="1" source="v-b9Ua1HN6AyLvcszPeQ-3" target="dDtzquKG6E8AnVl8TWLa-29">
          <mxGeometry relative="1" as="geometry" />
        </mxCell>
        <mxCell id="v-b9Ua1HN6AyLvcszPeQ-3" value="Category Management" style="rounded=1;whiteSpace=wrap;html=1;fillColor=#fff2cc;strokeColor=#d6b656;fontStyle=1;gradientColor=#ffd966;fontSize=14;" parent="1" vertex="1">
          <mxGeometry x="400" y="320" width="120" height="60" as="geometry" />
        </mxCell>
        <mxCell id="dDtzquKG6E8AnVl8TWLa-47" style="edgeStyle=orthogonalEdgeStyle;rounded=0;orthogonalLoop=1;jettySize=auto;html=1;exitX=0.5;exitY=1;exitDx=0;exitDy=0;entryX=0;entryY=0.5;entryDx=0;entryDy=0;" edge="1" parent="1" source="v-b9Ua1HN6AyLvcszPeQ-5" target="dDtzquKG6E8AnVl8TWLa-46">
          <mxGeometry relative="1" as="geometry" />
        </mxCell>
        <mxCell id="dDtzquKG6E8AnVl8TWLa-48" style="edgeStyle=orthogonalEdgeStyle;rounded=0;orthogonalLoop=1;jettySize=auto;html=1;exitX=0.5;exitY=1;exitDx=0;exitDy=0;entryX=0;entryY=0.5;entryDx=0;entryDy=0;" edge="1" parent="1" source="v-b9Ua1HN6AyLvcszPeQ-5" target="dDtzquKG6E8AnVl8TWLa-43">
          <mxGeometry relative="1" as="geometry" />
        </mxCell>
        <mxCell id="dDtzquKG6E8AnVl8TWLa-49" style="edgeStyle=orthogonalEdgeStyle;rounded=0;orthogonalLoop=1;jettySize=auto;html=1;exitX=0.5;exitY=1;exitDx=0;exitDy=0;entryX=0;entryY=0.5;entryDx=0;entryDy=0;" edge="1" parent="1" source="v-b9Ua1HN6AyLvcszPeQ-5" target="dDtzquKG6E8AnVl8TWLa-44">
          <mxGeometry relative="1" as="geometry" />
        </mxCell>
        <mxCell id="dDtzquKG6E8AnVl8TWLa-50" style="edgeStyle=orthogonalEdgeStyle;rounded=0;orthogonalLoop=1;jettySize=auto;html=1;exitX=0.5;exitY=1;exitDx=0;exitDy=0;entryX=0;entryY=0.5;entryDx=0;entryDy=0;" edge="1" parent="1" source="v-b9Ua1HN6AyLvcszPeQ-5" target="dDtzquKG6E8AnVl8TWLa-45">
          <mxGeometry relative="1" as="geometry" />
        </mxCell>
        <mxCell id="v-b9Ua1HN6AyLvcszPeQ-5" value="Order&lt;div style=&quot;font-size: 14px;&quot;&gt;Management&lt;/div&gt;" style="rounded=1;whiteSpace=wrap;html=1;fillColor=#fff2cc;strokeColor=#d6b656;fontStyle=1;gradientColor=#ffd966;fontSize=14;" parent="1" vertex="1">
          <mxGeometry x="560" y="320" width="120" height="60" as="geometry" />
        </mxCell>
        <mxCell id="dDtzquKG6E8AnVl8TWLa-55" style="edgeStyle=orthogonalEdgeStyle;rounded=0;orthogonalLoop=1;jettySize=auto;html=1;exitX=0.5;exitY=1;exitDx=0;exitDy=0;entryX=0;entryY=0.5;entryDx=0;entryDy=0;" edge="1" parent="1" source="v-b9Ua1HN6AyLvcszPeQ-6" target="dDtzquKG6E8AnVl8TWLa-54">
          <mxGeometry relative="1" as="geometry" />
        </mxCell>
        <mxCell id="dDtzquKG6E8AnVl8TWLa-56" style="edgeStyle=orthogonalEdgeStyle;rounded=0;orthogonalLoop=1;jettySize=auto;html=1;exitX=0.5;exitY=1;exitDx=0;exitDy=0;entryX=0;entryY=0.5;entryDx=0;entryDy=0;" edge="1" parent="1" source="v-b9Ua1HN6AyLvcszPeQ-6" target="dDtzquKG6E8AnVl8TWLa-51">
          <mxGeometry relative="1" as="geometry" />
        </mxCell>
        <mxCell id="dDtzquKG6E8AnVl8TWLa-57" style="edgeStyle=orthogonalEdgeStyle;rounded=0;orthogonalLoop=1;jettySize=auto;html=1;exitX=0.5;exitY=1;exitDx=0;exitDy=0;entryX=0;entryY=0.5;entryDx=0;entryDy=0;" edge="1" parent="1" source="v-b9Ua1HN6AyLvcszPeQ-6" target="dDtzquKG6E8AnVl8TWLa-52">
          <mxGeometry relative="1" as="geometry" />
        </mxCell>
        <mxCell id="dDtzquKG6E8AnVl8TWLa-58" style="edgeStyle=orthogonalEdgeStyle;rounded=0;orthogonalLoop=1;jettySize=auto;html=1;exitX=0.5;exitY=1;exitDx=0;exitDy=0;entryX=0;entryY=0.5;entryDx=0;entryDy=0;" edge="1" parent="1" source="v-b9Ua1HN6AyLvcszPeQ-6" target="dDtzquKG6E8AnVl8TWLa-53">
          <mxGeometry relative="1" as="geometry" />
        </mxCell>
        <mxCell id="v-b9Ua1HN6AyLvcszPeQ-6" value="User&lt;div style=&quot;font-size: 14px;&quot;&gt;Management&lt;/div&gt;" style="rounded=1;whiteSpace=wrap;html=1;fillColor=#fff2cc;strokeColor=#d6b656;fontStyle=1;gradientColor=#ffd966;fontSize=14;" parent="1" vertex="1">
          <mxGeometry x="710" y="320" width="120" height="60" as="geometry" />
        </mxCell>
        <mxCell id="dDtzquKG6E8AnVl8TWLa-63" style="edgeStyle=orthogonalEdgeStyle;rounded=0;orthogonalLoop=1;jettySize=auto;html=1;exitX=0.5;exitY=1;exitDx=0;exitDy=0;entryX=0;entryY=0.5;entryDx=0;entryDy=0;" edge="1" parent="1" source="v-b9Ua1HN6AyLvcszPeQ-7" target="dDtzquKG6E8AnVl8TWLa-62">
          <mxGeometry relative="1" as="geometry" />
        </mxCell>
        <mxCell id="dDtzquKG6E8AnVl8TWLa-65" style="edgeStyle=orthogonalEdgeStyle;rounded=0;orthogonalLoop=1;jettySize=auto;html=1;exitX=0.5;exitY=1;exitDx=0;exitDy=0;entryX=0;entryY=0.5;entryDx=0;entryDy=0;" edge="1" parent="1" source="v-b9Ua1HN6AyLvcszPeQ-7" target="dDtzquKG6E8AnVl8TWLa-60">
          <mxGeometry relative="1" as="geometry" />
        </mxCell>
        <mxCell id="v-b9Ua1HN6AyLvcszPeQ-7" value="Review&lt;div style=&quot;font-size: 14px;&quot;&gt;Management&lt;/div&gt;" style="rounded=1;whiteSpace=wrap;html=1;fillColor=#fff2cc;strokeColor=#d6b656;fontStyle=1;gradientColor=#ffd966;fontSize=14;" parent="1" vertex="1">
          <mxGeometry x="860" y="320" width="120" height="60" as="geometry" />
        </mxCell>
        <mxCell id="v-b9Ua1HN6AyLvcszPeQ-15" value="Create Product" style="rounded=1;whiteSpace=wrap;html=1;fillColor=#ffcd28;strokeColor=#d79b00;gradientColor=#ffa500;" parent="1" vertex="1">
          <mxGeometry x="330" y="470" width="80" height="50" as="geometry" />
        </mxCell>
        <mxCell id="dDtzquKG6E8AnVl8TWLa-1" value="Update Product" style="rounded=1;whiteSpace=wrap;html=1;fillColor=#ffcd28;strokeColor=#d79b00;gradientColor=#ffa500;" vertex="1" parent="1">
          <mxGeometry x="330" y="540" width="80" height="50" as="geometry" />
        </mxCell>
        <mxCell id="dDtzquKG6E8AnVl8TWLa-2" value="Delete Product" style="rounded=1;whiteSpace=wrap;html=1;fillColor=#ffcd28;strokeColor=#d79b00;gradientColor=#ffa500;" vertex="1" parent="1">
          <mxGeometry x="330" y="610" width="80" height="50" as="geometry" />
        </mxCell>
        <mxCell id="dDtzquKG6E8AnVl8TWLa-3" value="List&lt;div&gt;Product&lt;/div&gt;" style="rounded=1;whiteSpace=wrap;html=1;fillColor=#ffcd28;strokeColor=#d79b00;gradientColor=#ffa500;" vertex="1" parent="1">
          <mxGeometry x="330" y="400" width="80" height="50" as="geometry" />
        </mxCell>
        <mxCell id="dDtzquKG6E8AnVl8TWLa-8" value="Orders" style="rounded=1;whiteSpace=wrap;html=1;fillColor=#ffcd28;strokeColor=#d79b00;gradientColor=#ffa500;" vertex="1" parent="1">
          <mxGeometry x="170" y="420" width="80" height="50" as="geometry" />
        </mxCell>
        <mxCell id="dDtzquKG6E8AnVl8TWLa-9" value="Users" style="rounded=1;whiteSpace=wrap;html=1;fillColor=#ffcd28;strokeColor=#d79b00;gradientColor=#ffa500;" vertex="1" parent="1">
          <mxGeometry x="170" y="490" width="80" height="50" as="geometry" />
        </mxCell>
        <mxCell id="dDtzquKG6E8AnVl8TWLa-10" value="Sales" style="rounded=1;whiteSpace=wrap;html=1;fillColor=#ffcd28;strokeColor=#d79b00;gradientColor=#ffa500;" vertex="1" parent="1">
          <mxGeometry x="170" y="560" width="80" height="50" as="geometry" />
        </mxCell>
        <mxCell id="dDtzquKG6E8AnVl8TWLa-27" value="Create Category" style="rounded=1;whiteSpace=wrap;html=1;fillColor=#ffcd28;strokeColor=#d79b00;gradientColor=#ffa500;" vertex="1" parent="1">
          <mxGeometry x="480" y="470" width="80" height="50" as="geometry" />
        </mxCell>
        <mxCell id="dDtzquKG6E8AnVl8TWLa-28" value="Update Category" style="rounded=1;whiteSpace=wrap;html=1;fillColor=#ffcd28;strokeColor=#d79b00;gradientColor=#ffa500;" vertex="1" parent="1">
          <mxGeometry x="480" y="540" width="80" height="50" as="geometry" />
        </mxCell>
        <mxCell id="dDtzquKG6E8AnVl8TWLa-29" value="Delete Category" style="rounded=1;whiteSpace=wrap;html=1;fillColor=#ffcd28;strokeColor=#d79b00;gradientColor=#ffa500;" vertex="1" parent="1">
          <mxGeometry x="480" y="610" width="80" height="50" as="geometry" />
        </mxCell>
        <mxCell id="dDtzquKG6E8AnVl8TWLa-30" value="List&lt;div&gt;Category&lt;/div&gt;" style="rounded=1;whiteSpace=wrap;html=1;fillColor=#ffcd28;strokeColor=#d79b00;gradientColor=#ffa500;" vertex="1" parent="1">
          <mxGeometry x="480" y="400" width="80" height="50" as="geometry" />
        </mxCell>
        <mxCell id="dDtzquKG6E8AnVl8TWLa-43" value="Create&lt;br&gt;Order" style="rounded=1;whiteSpace=wrap;html=1;fillColor=#ffcd28;strokeColor=#d79b00;gradientColor=#ffa500;" vertex="1" parent="1">
          <mxGeometry x="640" y="470" width="80" height="50" as="geometry" />
        </mxCell>
        <mxCell id="dDtzquKG6E8AnVl8TWLa-44" value="Update&lt;br&gt;Order" style="rounded=1;whiteSpace=wrap;html=1;fillColor=#ffcd28;strokeColor=#d79b00;gradientColor=#ffa500;" vertex="1" parent="1">
          <mxGeometry x="640" y="540" width="80" height="50" as="geometry" />
        </mxCell>
        <mxCell id="dDtzquKG6E8AnVl8TWLa-45" value="Delete&lt;br&gt;Order" style="rounded=1;whiteSpace=wrap;html=1;fillColor=#ffcd28;strokeColor=#d79b00;gradientColor=#ffa500;" vertex="1" parent="1">
          <mxGeometry x="640" y="610" width="80" height="50" as="geometry" />
        </mxCell>
        <mxCell id="dDtzquKG6E8AnVl8TWLa-46" value="List&lt;div&gt;Order&lt;/div&gt;" style="rounded=1;whiteSpace=wrap;html=1;fillColor=#ffcd28;strokeColor=#d79b00;gradientColor=#ffa500;" vertex="1" parent="1">
          <mxGeometry x="640" y="400" width="80" height="50" as="geometry" />
        </mxCell>
        <mxCell id="dDtzquKG6E8AnVl8TWLa-51" value="Create&lt;br&gt;User" style="rounded=1;whiteSpace=wrap;html=1;fillColor=#ffcd28;strokeColor=#d79b00;gradientColor=#ffa500;" vertex="1" parent="1">
          <mxGeometry x="790" y="470" width="80" height="50" as="geometry" />
        </mxCell>
        <mxCell id="dDtzquKG6E8AnVl8TWLa-52" value="Update&lt;br&gt;User" style="rounded=1;whiteSpace=wrap;html=1;fillColor=#ffcd28;strokeColor=#d79b00;gradientColor=#ffa500;" vertex="1" parent="1">
          <mxGeometry x="790" y="540" width="80" height="50" as="geometry" />
        </mxCell>
        <mxCell id="dDtzquKG6E8AnVl8TWLa-53" value="Delete&lt;br&gt;User" style="rounded=1;whiteSpace=wrap;html=1;fillColor=#ffcd28;strokeColor=#d79b00;gradientColor=#ffa500;" vertex="1" parent="1">
          <mxGeometry x="790" y="610" width="80" height="50" as="geometry" />
        </mxCell>
        <mxCell id="dDtzquKG6E8AnVl8TWLa-54" value="List&lt;div&gt;User&lt;/div&gt;" style="rounded=1;whiteSpace=wrap;html=1;fillColor=#ffcd28;strokeColor=#d79b00;gradientColor=#ffa500;" vertex="1" parent="1">
          <mxGeometry x="790" y="400" width="80" height="50" as="geometry" />
        </mxCell>
        <mxCell id="dDtzquKG6E8AnVl8TWLa-60" value="Delete&lt;br&gt;Review" style="rounded=1;whiteSpace=wrap;html=1;fillColor=#ffcd28;strokeColor=#d79b00;gradientColor=#ffa500;" vertex="1" parent="1">
          <mxGeometry x="940" y="470" width="80" height="50" as="geometry" />
        </mxCell>
        <mxCell id="dDtzquKG6E8AnVl8TWLa-62" value="List&lt;div&gt;Review&lt;/div&gt;" style="rounded=1;whiteSpace=wrap;html=1;fillColor=#ffcd28;strokeColor=#d79b00;gradientColor=#ffa500;" vertex="1" parent="1">
          <mxGeometry x="940" y="400" width="80" height="50" as="geometry" />
        </mxCell>
      </root>
    </mxGraphModel>
  </diagram>
</mxfile>
